<svg xmlns="http://www.w3.org/2000/svg" xmlns:xlink="http://www.w3.org/1999/xlink" width="151.15" height="126.651" viewBox="0 0 151.15 126.651"><defs><clipPath id="a"><rect width="151.15" height="126.651" fill="none"/></clipPath></defs><g clip-path="url(#a)"><path d="M77.963,61.551a7.985,7.985,0,0,0,2.6-.5,7.187,7.187,0,1,0-9.3-4.1,7.1,7.1,0,0,0,6.7,4.6m-1-9.7a2.958,2.958,0,0,1,1-.2,2.571,2.571,0,1,1-1,.1Z" fill="#fff"/><path d="M57.063,46.451a5.852,5.852,0,0,0,2.2.5,4.767,4.767,0,0,0,2-.4,5.455,5.455,0,1,0-4.2-.1m1.3-5.4a1.069,1.069,0,0,1,.6-.6h.8a1.069,1.069,0,0,1,.6.6,1.986,1.986,0,0,1,0,.8,1.069,1.069,0,0,1-.6.6,1.987,1.987,0,0,1-.8,0,1.069,1.069,0,0,1-.6-.6,1.987,1.987,0,0,1,0-.8" fill="#fff"/><path d="M75.063,110.351a5.794,5.794,0,0,0-3.5,2.8c-1.4-.3-3.5-.8-6.7-1.4-1.2-.3-2.5-.5-3.5-.7v-.3a4.334,4.334,0,1,0-8.3,2.5,4.25,4.25,0,0,0,3.8,3.1,4.4,4.4,0,0,0,1.6-.2,3.9,3.9,0,0,0,2-1.3c.9.2,2,.4,3.6.8,2.1.4,5.3,1.1,6.9,1.5a1.268,1.268,0,0,0,.1.6,5.99,5.99,0,0,0,5.2,4.2,8.578,8.578,0,0,0,2.2-.2,5.948,5.948,0,0,0-3.4-11.4Zm-17.9,2c-.2,0-.4,0-.4-.2s0-.4.2-.4h.1a.319.319,0,0,1,.3.3c0,.2,0,.4-.2.4Zm20.1,5.6a1.959,1.959,0,0,1-2.4-1.3,2.622,2.622,0,0,1,.2-1.5,1.594,1.594,0,0,1,1.2-.9h.7a1.805,1.805,0,0,1,1.7,1.4,1.959,1.959,0,0,1-1.3,2.4Z" fill="#fff"/><path d="M146.563,73.351l3.6-2.4a2.291,2.291,0,0,0,.5-3.3l-16.2-19.5a15.992,15.992,0,0,1-3.3-6.8,51.751,51.751,0,0,0-28-35.5c-11.5-5.7-35.5-12.3-67.1,7.2l.2.4a3.881,3.881,0,0,0-1.1-.6,5.4,5.4,0,1,0-4.3,9.9,5.45,5.45,0,0,0,2.2.5,3.807,3.807,0,0,0,1.9-.4,5.33,5.33,0,0,0,3-2.9,5.818,5.818,0,0,0,.4-3.2c12-7.3,22.8-10.8,32.1-11.9a10.3,10.3,0,0,1,7,1.8,48.6,48.6,0,0,1,10.9,10.8,2.857,2.857,0,0,1-2.5,4.6c-1.4-.1-2.8-.2-4.3-.2h-1.1c-28.4,0-56.8,17.8-72.8,33.4h-.1a5.357,5.357,0,0,0-7.1,2.8,5.357,5.357,0,0,0,2.8,7.1,5.45,5.45,0,0,0,2.2.5,3.807,3.807,0,0,0,1.9-.4,5.33,5.33,0,0,0,3-2.9,4.758,4.758,0,0,0,.4-2.6,2,2,0,0,1,.8-1.9c15.7-15,43.1-31.9,70-31.4a52.347,52.347,0,0,1,11.9,1.4,2.428,2.428,0,0,1,1.7,1.4,84.592,84.592,0,0,1,6.7,27.7c.3,5.1-.7,3-1.9,4.1a8.517,8.517,0,0,0-2.9,5.3,5.053,5.053,0,0,1-3.6,4.5c-18.9,5.3-43.5,6.4-61.3,2.4a4.767,4.767,0,0,0-.4-2,5.413,5.413,0,0,0-10.1,3.9,5.527,5.527,0,0,0,5.1,3.5c2.2,0,1.3-.1,1.9-.4a5.968,5.968,0,0,0,1.5-.9,116.751,116.751,0,0,0,26.6,2.8c14.9,0,30.6-2.3,43.2-6.6a8.267,8.267,0,0,0,2.9,1.6,176.012,176.012,0,0,1-1.4,19.1,2.794,2.794,0,0,1-3.3,2.4c-1.6-.3-2.6-.5-3.9-.7a3.516,3.516,0,0,1-2.7-2.3,7.831,7.831,0,0,0-3.7-3.8c-4.4-2-9.4.1-10.5,4.8s-.3,3,.3,4.5a7.2,7.2,0,0,0,4,4.2,8.245,8.245,0,0,0,3.1.7,7.635,7.635,0,0,0,2.7-.5,7.124,7.124,0,0,0,2.7-1.8,4.171,4.171,0,0,1,3.6-1.3c1.3.3,2.2.4,3.4.7a3.585,3.585,0,0,1,2.8,4.1c-.5,2.8-1.1,5.3-1.6,7.4l1.2-.3c-2,.4-5.3,1.3-6.3,5.2a7.38,7.38,0,0,0,7.6,9.1c2.3,0,1.7-.2,2.6-.5a7.229,7.229,0,0,0,3.1-2.3c.8-1,1.1-1,1.8-1l12.5-.3a2.144,2.144,0,0,0,1.9-1.1l8-13.5a4.5,4.5,0,0,1,3.8-2.2c3.2,0,7.8-.1,11.3-.2,1.5,0,2.1-1,2.2-2.6-1.3-7.2-3-16.8-4-22.8s.7-5.1,2.9-6.5Zm-112.5-55.2a.79.79,0,0,1-.5.5,1.579,1.579,0,0,1-.7,0,.79.79,0,0,1-.5-.5,1.579,1.579,0,0,1,0-.7.79.79,0,0,1,.5-.5h.7a.79.79,0,0,1,.5.5,1.579,1.579,0,0,1,0,.7m-27.8,42.5a.79.79,0,0,1-.5.5,1.579,1.579,0,0,1-.7,0,.79.79,0,0,1-.5-.5,1.579,1.579,0,0,1,0-.7.79.79,0,0,1,.5-.5h.3a.961.961,0,0,1,.9.6,1.579,1.579,0,0,1,0,.7Zm21.4,13a.79.79,0,0,1-.5.5.883.883,0,0,1-1.2-.5,1.579,1.579,0,0,1,0-.7.79.79,0,0,1,.5-.5h.7a.79.79,0,0,1,.5.5,1.579,1.579,0,0,1,0,.7m59.7,24a2.7,2.7,0,0,1-1.7,1.6,3.048,3.048,0,0,1-2.3,0,2.982,2.982,0,0,1-1.6-1.7,3.107,3.107,0,0,1,1.8-4,4.253,4.253,0,0,1,1.1-.2,3.245,3.245,0,0,1,2.9,2,3.049,3.049,0,0,1,0,2.3Zm26.9,1.6c-1.7-.2-3.5-.5-5.2-.8a3.689,3.689,0,0,1-3.1-4.1c.7-5.7,1.2-12.1,1.4-19.2a1.613,1.613,0,0,0,.9-.3,8.01,8.01,0,0,0,5.1-6.3,7.067,7.067,0,0,1,2.1-4.1,111.137,111.137,0,0,0,9.2-9.1,2.251,2.251,0,0,1,3.9,1.5c.2,14.6-2.7,27.9-12.1,41.4a2.2,2.2,0,0,1-2.1.9Zm-26.7-89.7a2.229,2.229,0,0,1,2.1-3.7,46.9,46.9,0,0,1,11.6,4.1,48.317,48.317,0,0,1,22.4,22.7,2.235,2.235,0,0,1-3.4,2.7,70.226,70.226,0,0,0-18.7-9.9,10.616,10.616,0,0,1-5.6-4.4,57.892,57.892,0,0,0-8.5-11.5Zm17.3,22a71.407,71.407,0,0,1,20.1,13.6,2.286,2.286,0,0,1,.2,3c-4.3,5.5-9.6,14.2-13.6,13.9s-4.6-2.3-5.1-2.8c-1.7-1.9-.7-13-4.6-24.9a2.231,2.231,0,0,1,3-2.8m-3.1,37.1a3.846,3.846,0,0,1,2.2-4.9,3.194,3.194,0,0,1,1.4-.3,4.013,4.013,0,0,1,1.5.3,3.757,3.757,0,0,1,2,2.1,3.846,3.846,0,0,1-2.2,4.9,3.763,3.763,0,0,1-4.9-2.2Zm-.1,53.1a2.721,2.721,0,0,1-1.9-5.1,2.959,2.959,0,0,1,1-.2,2.677,2.677,0,0,1,.9,5.2Zm2.2-9a9.961,9.961,0,0,0-1.1-.4c.5-2.3,1.1-5,1.7-8s1.2-1.9,2.3-1.7,1.3.2,2,.3a2.108,2.108,0,0,1,1.3,3.4C108.163,108.451,106.363,110.851,103.863,112.751Zm16.1,4a2.144,2.144,0,0,1-1.9,1.1l-10.3.2a4.191,4.191,0,0,0-.4-1.5,1.012,1.012,0,0,0-.4-.7,92.942,92.942,0,0,0,9.2-10,3.832,3.832,0,0,1,3.6-1.4c1.4.2,2.4.3,3.6.4a2.154,2.154,0,0,1,1.6,3.3l-5.1,8.5Zm10.9-15.5h0c-2.2-.3-4.5-.5-6.9-.8a2.193,2.193,0,0,1-1.6-3.3c7.6-12.3,10.3-24.6,10.5-37.6a2.195,2.195,0,0,1,3.9-1.4l5.5,6.5c2,2.4,1.6,5.1-.4,6.4l-2.5,1.7c-1.3.8-1.4.9,3,25.5a2.3,2.3,0,0,1-2.2,2.7,78.687,78.687,0,0,0-9.3.4Z" fill="#fff"/></g></svg>