<svg xmlns="http://www.w3.org/2000/svg" xmlns:xlink="http://www.w3.org/1999/xlink" width="435" height="597" viewBox="0 0 435 597">
  <defs>
    <clipPath id="clip-path">
      <rect id="Rectangle_2007" data-name="Rectangle 2007" width="435" height="597" transform="translate(1485)" fill="#fff"/>
    </clipPath>
  </defs>
  <g id="Group_2080" data-name="Group 2080" transform="translate(-1485)">
    <g id="Group_2079" data-name="Group 2079">
      <g id="Mask_Group_13" data-name="Mask Group 13" clip-path="url(#clip-path)">
        <g id="Group_2063" data-name="Group 2063" transform="translate(1083.715 227.743)">
          <g id="Ellipse_498" data-name="Ellipse 498" transform="translate(491.202 -581.057)" fill="none" stroke="#771e71" stroke-width="2" opacity="0.309">
            <ellipse cx="449.025" cy="482.488" rx="449.025" ry="482.488" stroke="none"/>
            <ellipse cx="449.025" cy="482.488" rx="448.025" ry="481.488" fill="none"/>
          </g>
          <g id="Path_21660" data-name="Path 21660" transform="matrix(-0.174, -0.985, 0.985, -0.174, 596.362, 388.837)" fill="none" opacity="0.249">
            <path d="M417.31,3.777C647.784,5.863,836.5,204.508,838.811,447.464S656.165,885.682,425.691,883.6,6.5,682.864,4.19,439.909,186.836,1.691,417.31,3.777Z" stroke="none"/>
            <path d="M 413.6524047851562 5.7606201171875 C 400.0704956054688 5.7606201171875 386.3802795410156 6.46142578125 372.9620666503906 7.843505859375 C 359.7302856445312 9.20654296875 346.4376220703125 11.265380859375 333.4532775878906 13.96295166015625 C 320.630615234375 16.6270751953125 307.79638671875 19.97894287109375 295.3073120117188 23.925537109375 C 282.9530639648438 27.82952880859375 270.6383666992188 32.409423828125 258.7055053710938 37.5382080078125 C 235.0872802734375 47.68927001953125 212.2620849609375 60.2740478515625 190.8639526367188 74.94293212890625 C 169.6736450195312 89.46942138671875 149.6646118164062 106.1881713867188 131.3927001953125 124.6349487304688 C 111.8331909179688 144.3817138671875 94.090087890625 166.2788696289062 78.65631103515625 189.7180786132812 C 63.08209228515625 213.3707275390625 49.7423095703125 238.7733764648438 39.00762939453125 265.2205200195312 C 33.58416748046875 278.582275390625 28.75531005859375 292.3984985351562 24.65509033203125 306.285400390625 C 20.50762939453125 320.3320922851562 17.0072021484375 334.78515625 14.2509765625 349.2430419921875 C 11.4576416015625 363.8952026367188 9.36151123046875 378.9053955078125 8.0206298828125 393.8567199707031 C 6.65948486328125 409.0343017578125 6.04364013671875 424.5221862792969 6.18994140625 439.8901672363281 C 6.332275390625 454.8320617675781 7.1976318359375 469.9070739746094 8.761962890625 484.6965026855469 C 10.30352783203125 499.2713928222656 12.5614013671875 513.923095703125 15.47271728515625 528.2445068359375 C 18.34637451171875 542.3804931640625 21.92559814453125 556.534423828125 26.11114501953125 570.3132934570312 C 30.24981689453125 583.937744140625 35.07958984375 597.5194091796875 40.46636962890625 610.6809692382812 C 51.126708984375 636.7278442382812 64.25360107421875 661.8756103515625 79.482421875 685.4257202148438 C 94.56573486328125 708.7509765625 111.8417358398438 730.7127685546875 130.8303833007812 750.7008666992188 C 149.8172607421875 770.6871948242188 170.6728515625 788.8646240234375 192.8175048828125 804.728271484375 C 215.1718139648438 820.7421875 239.0371704101562 834.5382690429688 263.75048828125 845.7332763671875 C 276.2369384765625 851.3896484375 289.12060546875 856.45849609375 302.0436401367188 860.799072265625 C 315.1123046875 865.1885375976562 328.53564453125 868.938720703125 341.9405212402344 871.9454956054688 C 355.5209655761719 874.9916381835938 369.4132995605469 877.3487548828125 383.2317199707031 878.9515380859375 C 397.2532958984375 880.5778198242188 411.5446166992188 881.467529296875 425.7086181640625 881.5957641601562 C 426.9295043945312 881.6068725585938 428.1200561523438 881.6121826171875 429.348388671875 881.6121826171875 C 442.9302978515625 881.6121826171875 456.6205139160156 880.911376953125 470.0387268066406 879.529296875 C 483.2705078125 878.166259765625 496.5631713867188 876.107421875 509.5475158691406 873.4098510742188 C 522.3701782226562 870.7457275390625 535.2044067382812 867.3938598632812 547.6934814453125 863.447265625 C 560.0477294921875 859.5432739257812 572.3624267578125 854.9633178710938 584.2952880859375 849.8345947265625 C 607.9136352539062 839.6835327148438 630.7387084960938 827.0987548828125 652.1368408203125 812.4298706054688 C 673.3271484375 797.9033813476562 693.336181640625 781.1845092773438 711.6080322265625 762.7377319335938 C 731.167724609375 742.990966796875 748.9107055664062 721.0938720703125 764.344482421875 697.6546020507812 C 779.918701171875 674.0020751953125 793.2584838867188 648.5993041992188 803.9930419921875 622.1522827148438 C 809.41650390625 608.79052734375 814.2454223632812 594.9743041992188 818.3456420898438 581.08740234375 C 822.4930419921875 567.040771484375 825.9935913085938 552.587646484375 828.7498168945312 538.1297607421875 C 831.5430908203125 523.4776611328125 833.6392822265625 508.4674072265625 834.9800415039062 493.5160827636719 C 836.3411865234375 478.3385009765625 836.9570922851562 462.8506164550781 836.8107299804688 447.4826354980469 C 836.6683959960938 432.5407409667969 835.8030395507812 417.4657287597656 834.2387084960938 402.6763000488281 C 832.6971435546875 388.1014099121094 830.4393920898438 373.44970703125 827.5279541015625 359.128173828125 C 824.6544189453125 344.9923095703125 821.0750732421875 330.83837890625 816.8895263671875 317.0595092773438 C 812.7508544921875 303.43505859375 807.9210815429688 289.8533935546875 802.534423828125 276.6918334960938 C 791.8740844726562 250.6449584960938 778.7471923828125 225.4971923828125 763.5183715820312 201.9470825195312 C 748.43505859375 178.621826171875 731.1590576171875 156.6600952148438 712.17041015625 136.6719360351562 C 693.1834716796875 116.6856079101562 672.3280639648438 98.5081787109375 650.1832885742188 82.64453125 C 627.8289794921875 66.630615234375 603.963623046875 52.83453369140625 579.250244140625 41.6395263671875 C 566.7638549804688 35.983154296875 553.8801879882812 30.914306640625 540.9571533203125 26.57373046875 C 527.8885498046875 22.18426513671875 514.4652709960938 18.43408203125 501.0602722167969 15.42730712890625 C 487.4798278808594 12.38116455078125 473.5874938964844 10.0240478515625 459.7690734863281 8.4212646484375 C 445.7474975585938 6.79498291015625 431.4561767578125 5.9052734375 417.2921752929688 5.77703857421875 C 416.0712890625 5.76593017578125 414.8807373046875 5.7606201171875 413.6524047851562 5.7606201171875 M 413.6523742675781 3.7606201171875 C 414.8736267089844 3.7606201171875 416.0864562988281 3.76611328125 417.3102722167969 3.77716064453125 C 647.784423828125 5.86328125 836.4965209960938 204.5084228515625 838.8106079101562 447.463623046875 C 841.112548828125 689.128662109375 658.1138916015625 883.6121826171875 429.3484191894531 883.6121826171875 C 428.1271667480469 883.6121826171875 426.9143371582031 883.606689453125 425.6905212402344 883.5956420898438 C 195.2164916992188 881.509521484375 6.5042724609375 682.8643798828125 4.1900634765625 439.9091796875 C 1.88824462890625 198.2442016601562 184.8869018554688 3.7606201171875 413.6523742675781 3.7606201171875 Z" stroke="none" fill="#0c2372"/>
          </g>
          <g id="Path_21661" data-name="Path 21661" transform="translate(488.72 304.363) rotate(-83)" fill="none" opacity="0.265">
            <path d="M468.729-4.426C727.6-6.871,935.631,169.988,933.377,390.6S719.439,792.031,460.567,794.476-6.335,620.062-4.081,399.451,209.857-1.982,468.729-4.426Z" stroke="none"/>
            <path d="M 474.0298156738281 -2.45135498046875 C 472.27685546875 -2.45135498046875 470.4997863769531 -2.4429931640625 468.748046875 -2.42645263671875 C 452.8164978027344 -2.27593994140625 436.7431030273438 -1.43292236328125 420.9741516113281 0.0794677734375 C 405.4340209960938 1.56982421875 389.8118896484375 3.74627685546875 374.5419311523438 6.54827880859375 C 359.4700317382812 9.31402587890625 344.3790893554688 12.75555419921875 329.6880493164062 16.7774658203125 C 315.1620483398438 20.754150390625 300.6818237304688 25.39263916015625 286.6494750976562 30.56402587890625 C 258.881591796875 40.79754638671875 232.072509765625 53.39178466796875 206.9668579101562 67.9971923828125 C 182.1043701171875 82.46112060546875 158.69580078125 99.02227783203125 137.3912353515625 117.2207641601562 C 116.09228515625 135.4144897460938 96.72119140625 155.3941650390625 79.816162109375 176.604736328125 C 62.754638671875 198.0117797851562 48.0557861328125 220.861572265625 36.1282958984375 244.5192260742188 C 30.10272216796875 256.4703979492188 24.7030029296875 268.8008422851562 20.078857421875 281.1679382324219 C 15.4029541015625 293.67333984375 11.40789794921875 306.51708984375 8.20452880859375 319.3424072265625 C 4.95947265625 332.3347473144531 2.44793701171875 345.6246337890625 0.73956298828125 358.8429870605469 C -0.99383544921875 372.2550964355469 -1.94293212890625 385.9244995117188 -2.08135986328125 399.4714660644531 C -2.20452880859375 411.5335693359375 -1.6871337890625 423.7011108398438 -0.54327392578125 435.6360473632812 C 0.5855712890625 447.4151000976562 2.35284423828125 459.2634582519531 4.70947265625 470.8521728515625 C 7.03826904296875 482.3038024902344 10.0003662109375 493.7873229980469 13.5137939453125 504.9837951660156 C 16.9906005859375 516.0634765625 21.09307861328125 527.1362915039062 25.70745849609375 537.89453125 C 34.83685302734375 559.1798095703125 46.244873046875 579.907470703125 59.6146240234375 599.501953125 C 72.8389892578125 618.8832397460938 88.154296875 637.4088745117188 105.1351928710938 654.5641479492188 C 126.0245361328125 675.6679077148438 149.6280517578125 694.9130859375 175.2900390625 711.764892578125 C 201.1364135742188 728.73779296875 229.1880493164062 743.3585205078125 258.6657104492188 755.2208862304688 C 288.6773071289062 767.2980346679688 320.3516845703125 776.5877075195312 352.8092041015625 782.8316650390625 C 369.316162109375 786.0072021484375 386.25390625 788.432373046875 403.1517944335938 790.0399169921875 C 420.3174438476562 791.6728515625 437.8512268066406 792.5008544921875 455.2662658691406 792.5008544921875 C 457.0189819335938 792.5008544921875 458.7959289550781 792.4924926757812 460.5476684570312 792.4759521484375 C 476.4792175292969 792.325439453125 492.5526123046875 791.482421875 508.3215637207031 789.9700317382812 C 523.86181640625 788.4796752929688 539.4837646484375 786.30322265625 554.7537841796875 783.501220703125 C 569.82568359375 780.7354736328125 584.916748046875 777.2939453125 599.607666015625 773.2720336914062 C 614.1336669921875 769.2953491210938 628.6138916015625 764.6568603515625 642.646240234375 759.4854736328125 C 670.414306640625 749.251953125 697.2233276367188 736.6575927734375 722.328857421875 722.05224609375 C 747.1913452148438 707.58837890625 770.6000366210938 691.0272216796875 791.904541015625 672.82861328125 C 813.2035522460938 654.635009765625 832.5746459960938 634.6553344726562 849.4795532226562 613.4447631835938 C 866.5411987304688 592.03759765625 881.2399291992188 569.1878051757812 893.16748046875 545.5302734375 C 899.1929931640625 533.5789794921875 904.5927734375 521.24853515625 909.2168579101562 508.8814697265625 C 913.8927612304688 496.3760375976562 917.8878173828125 483.5322875976562 921.0911865234375 470.7069702148438 C 924.3362426757812 457.7146301269531 926.8477783203125 444.4247436523438 928.55615234375 431.2063903808594 C 930.28955078125 417.7942810058594 931.2386474609375 404.1248779296875 931.3770751953125 390.5779113769531 C 931.500244140625 378.5158081054688 930.9828491210938 366.3482666015625 929.8389892578125 354.413330078125 C 928.7101440429688 342.63427734375 926.94287109375 330.7859191894531 924.5862426757812 319.1972351074219 C 922.2574462890625 307.7455749511719 919.2953491210938 296.2620544433594 915.7819213867188 285.0655822753906 C 912.3051147460938 273.9857788085938 908.20263671875 262.9130859375 903.5882568359375 252.1547241210938 C 894.4588623046875 230.8695678710938 883.0508422851562 210.1417846679688 869.6810913085938 190.54736328125 C 856.4567260742188 171.166015625 841.1414794921875 152.640380859375 824.1605224609375 135.4852294921875 C 803.271240234375 114.38134765625 779.6677856445312 95.13629150390625 754.0057983398438 78.28448486328125 C 728.159423828125 61.31158447265625 700.10791015625 46.69097900390625 670.6302490234375 34.82861328125 C 640.61865234375 22.75146484375 608.9442749023438 13.4617919921875 576.4867553710938 7.21783447265625 C 559.9797973632812 4.04229736328125 543.0421142578125 1.61712646484375 526.1441650390625 0.00958251953125 C 508.9786376953125 -1.62335205078125 491.4448547363281 -2.45135498046875 474.0298156738281 -2.45135498046875 M 474.0297546386719 -4.45135498046875 C 730.4564208984375 -4.45135498046875 935.61572265625 171.4822998046875 933.376953125 390.598388671875 C 931.1229858398438 611.2091064453125 719.4385986328125 792.03125 460.5666198730469 794.475830078125 C 458.8128051757812 794.4923706054688 457.0153198242188 794.5008544921875 455.2662048339844 794.5008544921875 C 198.8396606445312 794.5008544921875 -6.32000732421875 618.5670776367188 -4.08123779296875 399.4509887695312 C -1.8272705078125 178.8402709960938 209.8572387695312 -1.98175048828125 468.7290954589844 -4.42633056640625 C 470.4829406738281 -4.44287109375 472.2806396484375 -4.45135498046875 474.0297546386719 -4.45135498046875 Z" stroke="none" fill="#dd4c94"/>
          </g>
        </g>
      </g>
    </g>
  </g>
</svg>
