<svg xmlns="http://www.w3.org/2000/svg" width="1083" height="172.849" viewBox="0 0 1083 172.849">
  <g id="Group_2086" data-name="Group 2086" transform="translate(-421 -6535.151)">
    <text id="Title_TAG:H1_" data-name="Title [TAG:H1]" transform="translate(498 6669)" fill="#fff" font-size="26" font-family="Rubik-Light, Rubik" font-weight="300" letter-spacing="0.004em"><tspan x="-76.128" y="0">Requirement</tspan><tspan x="-60.658" y="32">&amp; Analysis</tspan></text>
    <text id="Title_TAG:H1_2" data-name="Title [TAG:H1]" transform="translate(960 6669)" fill="#fff" font-size="26" font-family="Rubik-Light, Rubik" font-weight="300" letter-spacing="0.004em"><tspan x="-58.591" y="0">Research </tspan><tspan x="-47.541" y="32">&amp; UX/UI</tspan></text>
    <text id="Title_TAG:H1_3" data-name="Title [TAG:H1]" transform="translate(1425 6669)" fill="#fff" font-size="26" font-family="Rubik-Light, Rubik" font-weight="300" letter-spacing="0.004em"><tspan x="-78.507" y="0">Development</tspan><tspan x="-70.109" y="32">&amp; Marketing</tspan></text>
    <circle id="Ellipse_488" data-name="Ellipse 488" cx="37" cy="37" r="37" transform="translate(467 6550)" fill="#f8608f" opacity="0.3"/>
    <circle id="Ellipse_491" data-name="Ellipse 491" cx="37" cy="37" r="37" transform="translate(923 6550)" fill="#f8608f" opacity="0.3"/>
    <circle id="Ellipse_494" data-name="Ellipse 494" cx="37" cy="37" r="37" transform="translate(1386 6550)" fill="#f8608f" opacity="0.3"/>
    <circle id="Ellipse_489" data-name="Ellipse 489" cx="26" cy="26" r="26" transform="translate(478 6561)" fill="#f8608f" opacity="0.3"/>
    <circle id="Ellipse_492" data-name="Ellipse 492" cx="26" cy="26" r="26" transform="translate(934 6561)" fill="#f8608f" opacity="0.3"/>
    <circle id="Ellipse_495" data-name="Ellipse 495" cx="26" cy="26" r="26" transform="translate(1397 6561)" fill="#f8608f" opacity="0.3"/>
    <circle id="Ellipse_490" data-name="Ellipse 490" cx="18.5" cy="18.5" r="18.5" transform="translate(486 6568)" fill="#f8608f" opacity="0.3"/>
    <circle id="Ellipse_493" data-name="Ellipse 493" cx="18.5" cy="18.5" r="18.5" transform="translate(942 6568)" fill="#f8608f" opacity="0.3"/>
    <circle id="Ellipse_496" data-name="Ellipse 496" cx="18.5" cy="18.5" r="18.5" transform="translate(1405 6568)" fill="#f8608f" opacity="0.3"/>
    <text id="_1" data-name="1" transform="translate(504 6596)" fill="#191b27" font-size="26" font-family="Rubik-Regular, Rubik" letter-spacing="0.004em"><tspan x="-5.564" y="0">1</tspan></text>
    <text id="_2" data-name="2" transform="translate(960 6596)" fill="#191b27" font-size="26" font-family="Rubik-Regular, Rubik" letter-spacing="0.004em"><tspan x="-7.631" y="0">2</tspan></text>
    <text id="_3" data-name="3" transform="translate(1423 6596)" fill="#191b27" font-size="26" font-family="Rubik-Regular, Rubik" letter-spacing="0.004em"><tspan x="-7.813" y="0">3</tspan></text>
    <g id="Group_2041" data-name="Group 2041" transform="translate(0 124)">
      <path id="Path_21656" data-name="Path 21656" d="M-13607.658-10035.127s98.085-48.537,190.7-49.668,179.772,45.146,179.772,45.146" transform="translate(14154 16496.971)" fill="none" stroke="#5c3046" stroke-width="2" stroke-dasharray="6"/>
      <path id="Path_21657" data-name="Path 21657" d="M-13237.668-10053.961l3.382,8.543-7.977,3.395" transform="translate(14153 16504)" fill="none" stroke="#5c3046" stroke-linecap="round" stroke-linejoin="round" stroke-width="3"/>
    </g>
    <g id="Group_2042" data-name="Group 2042" transform="translate(459 130.934)">
      <path id="Path_21656-2" data-name="Path 21656" d="M-13607.658-10035.127s98.085-48.537,190.7-49.668,179.772,45.146,179.772,45.146" transform="translate(14154 16496.971)" fill="none" stroke="#5c3046" stroke-width="2" stroke-dasharray="6"/>
      <path id="Path_21657-2" data-name="Path 21657" d="M-13237.668-10053.961l3.382,8.543-7.977,3.395" transform="translate(14153 16504)" fill="none" stroke="#5c3046" stroke-linecap="round" stroke-linejoin="round" stroke-width="3"/>
    </g>
  </g>
</svg>
